<?xml version="1.0" encoding="UTF-8" standalone="no"?>
<svg
   xmlns:dc="http://purl.org/dc/elements/1.1/"
   xmlns:cc="http://creativecommons.org/ns#"
   xmlns:rdf="http://www.w3.org/1999/02/22-rdf-syntax-ns#"
   xmlns:svg="http://www.w3.org/2000/svg"
   xmlns="http://www.w3.org/2000/svg"
   xmlns:sodipodi="http://sodipodi.sourceforge.net/DTD/sodipodi-0.dtd"
   xmlns:inkscape="http://www.inkscape.org/namespaces/inkscape"
   inkscape:version="1.0beta2 (2b71d25, 2019-12-03)"
   sodipodi:docname="logo.svg"
   id="svg46"
   version="1.1"
   viewBox="0 0 432.77 124.57">
  <metadata
     id="metadata50">
    <rdf:RDF>
      <cc:Work
         rdf:about="">
        <dc:format>image/svg+xml</dc:format>
        <dc:type
           rdf:resource="http://purl.org/dc/dcmitype/StillImage" />
      </cc:Work>
    </rdf:RDF>
  </metadata>
  <sodipodi:namedview
     inkscape:current-layer="Layer_1"
     inkscape:window-maximized="0"
     inkscape:window-y="833"
     inkscape:window-x="135"
     inkscape:cy="18.911979"
     inkscape:cx="246.46302"
     inkscape:zoom="1.3346751"
     inkscape:snap-global="false"
     showguides="true"
     showgrid="false"
     id="namedview48"
     inkscape:window-height="1107"
     inkscape:window-width="1272"
     inkscape:pageshadow="2"
     inkscape:pageopacity="0"
     guidetolerance="10"
     gridtolerance="10"
     objecttolerance="10"
     borderopacity="1"
     inkscape:document-rotation="0"
     bordercolor="#666666"
     pagecolor="#ffffff" />
  <defs
     id="defs12">
    <style
       id="style10">.cls-1{fill:#282bdb;}.cls-2{fill:#3581e6;}.cls-3{fill:#3ec7eb;}.cls-4{fill:#fff;}</style>
  </defs>
  <g
     data-name="图层 2"
     id="图层_2">
    <g
       style="fill:#2b0000;fill-opacity:1"
       data-name="Layer 1"
       id="Layer_1">
      <polygon
         style="fill:#282bdb;fill-opacity:1"
         id="polygon14"
         points="53.94 96.05 53.94 124.57 51.66 123.25 39.62 116.3 39.62 87.79 53.94 96.05"
         class="cls-1" />
      <polygon
         style="fill:#282bdb;fill-opacity:1"
         id="polygon16"
         points="24.69 45.4 24.69 107.68 0 93.42 0 31.14 24.69 45.4"
         class="cls-1" />
      <polygon
         style="fill:#3581e6;fill-opacity:1"
         id="polygon18"
         points="107.88 31.14 107.88 93.42 53.94 124.57 53.94 96.06 83.18 79.17 83.18 45.4 107.88 31.14"
         class="cls-2" />
      <polygon
         style="fill:#3ec7eb;fill-opacity:1"
         id="polygon20"
         points="107.88 31.14 83.18 45.4 53.94 28.51 24.7 45.4 0 31.14 53.94 0 107.88 31.14"
         class="cls-3" />
      <path
         style="fill:#2b0000;fill-opacity:1"
         id="path22"
         d="M136.76,45.4h15.49c3.66,0,6.52.92,8.56,2.77a9.93,9.93,0,0,1,3.06,7.75,9.92,9.92,0,0,1-3.06,7.74c-2,1.85-4.9,2.77-8.56,2.77h-8V79.1h-7.46Zm14.53,15.39q5.6,0,5.6-4.83a4.63,4.63,0,0,0-1.39-3.68,6.37,6.37,0,0,0-4.21-1.19h-7.07v9.7Z"
         class="cls-4" />
      <path
         style="fill:#2b0000;fill-opacity:1"
         id="path24"
         d="M172.62,78a10.51,10.51,0,0,1-4.35-4.26,14.47,14.47,0,0,1,0-12.95,10.44,10.44,0,0,1,4.35-4.23,15.14,15.14,0,0,1,13.1,0,10.38,10.38,0,0,1,4.35,4.23,14.47,14.47,0,0,1,0,12.95A10.45,10.45,0,0,1,185.72,78a15,15,0,0,1-13.1,0Zm11.81-10.73a7.89,7.89,0,0,0-1.36-5.07,4.73,4.73,0,0,0-3.9-1.67q-5.25,0-5.25,6.74T179.17,74Q184.44,74,184.43,67.25Z"
         class="cls-4" />
      <path
         style="fill:#2b0000;fill-opacity:1"
         id="path26"
         d="M196.43,79.1V45.4h7.22V79.1Z"
         class="cls-4" />
      <path
         style="fill:#2b0000;fill-opacity:1"
         id="path28"
         d="M226.39,55.68h7.08l-14.15,32H212l4.5-9.9-9.66-22.13h7.51l5.92,14.91Z"
         class="cls-4" />
      <path
         style="fill:#2b0000;fill-opacity:1"
         id="path30"
         d="M292.79,68.73H277.5a6,6,0,0,0,1.84,4.09,6.48,6.48,0,0,0,4.28,1.26,11.61,11.61,0,0,0,3.61-.59,11.83,11.83,0,0,0,3.27-1.7l1.91,4.83a13,13,0,0,1-4.18,2.1,16.59,16.59,0,0,1-5,.77q-5.92,0-9.35-3.28a11.8,11.8,0,0,1-3.41-8.92A13.2,13.2,0,0,1,272,60.94a10.86,10.86,0,0,1,4.11-4.33,11.5,11.5,0,0,1,6-1.56,10,10,0,0,1,7.81,3.21q2.89,3.2,2.89,8.7ZM279,61.34a6.59,6.59,0,0,0-1.5,3.8h9.22a6.18,6.18,0,0,0-1.26-3.82A4,4,0,0,0,282.28,60,4.29,4.29,0,0,0,279,61.34Z"
         class="cls-4" />
      <path
         style="fill:#2b0000;fill-opacity:1"
         id="path32"
         d="M313.23,74l-.38,5.26a19.85,19.85,0,0,1-2.77.2c-3.57,0-6.18-.79-7.82-2.35S299.8,73.21,299.8,70V61h-4.45v-5.4h4.45V48.74H307v6.89h5.88V61H307V70q0,4.22,3.92,4.21A18.32,18.32,0,0,0,313.23,74Z"
         class="cls-4" />
      <path
         style="fill:#2b0000;fill-opacity:1"
         id="path34"
         d="M349.8,55.63h7L347.31,79.1h-6.12L336,65.86,331,79.1h-6.07l-9.56-23.47h7.36l5.55,14.87,5.54-14.87h4.88l5.59,15Z"
         class="cls-4" />
      <path
         style="fill:#2b0000;fill-opacity:1"
         id="path36"
         d="M363.93,78a10.51,10.51,0,0,1-4.35-4.26,14.47,14.47,0,0,1,0-12.95,10.44,10.44,0,0,1,4.35-4.23,15.14,15.14,0,0,1,13.1,0,10.44,10.44,0,0,1,4.35,4.23,14.47,14.47,0,0,1,0,12.95A10.51,10.51,0,0,1,377,78a15,15,0,0,1-13.1,0Zm11.81-10.73a7.89,7.89,0,0,0-1.37-5.07,4.7,4.7,0,0,0-3.89-1.67q-5.26,0-5.26,6.74T370.48,74C374,74,375.74,71.74,375.74,67.25Z"
         class="cls-4" />
      <path
         style="fill:#2b0000;fill-opacity:1"
         id="path38"
         d="M404.47,61l-4.07.43a6.31,6.31,0,0,0-4.25,1.7,5.46,5.46,0,0,0-1.25,3.75V79.1h-7.22V55.63h6.94v4q1.75-4.07,7.31-4.45L404,55Z"
         class="cls-4" />
      <path
         style="fill:#2b0000;fill-opacity:1"
         id="path40"
         d="M432.77,79.1h-8.84l-9-10.47V79.1h-7.22V45.4h7.22V65.67l8.65-10h8.61l-9.85,11.18Z"
         class="cls-4" />
      <path
         style="fill:#2b0000;fill-opacity:1"
         id="path42"
         d="M258.91,45.4h7V79.1h-5.54L243.57,57.64V79.1h-6.94V45.4h5.5l16.78,21.37Z"
         class="cls-4" />
    </g>
  </g>
</svg>
