<svg fill="none" height="50" viewBox="0 0 53 50" width="53" xmlns="http://www.w3.org/2000/svg"><path d="m50.219 30.7138h-49.13024c-.310637 0-.564795.2542-.564795.5648v4.236c0 .3106.254158.5648.564795.5648h42.72684l-10.1875 12.9197c-.2895.3671-.0283.9178.4448.9178h5.1184c.346 0 .6707-.1553.8896-.4306l11.9172-15.1154c1.1649-1.4826.1129-3.6571-1.7791-3.6571zm1.7014-16.6614h-42.72681l10.18751-12.91976c.2895-.36712.0282-.917796-.4448-.917796h-5.1184c-.346 0-.6707.155319-.8896.430657l-11.9172 15.115399c-1.164891 1.4826-.112958 3.657 1.77205 3.657h49.13725c.3107 0 .5648-.2541.5648-.5648v-4.236c0-.3106-.2541-.5647-.5648-.5647z" fill="#2f6dbd"/></svg>